<svg width="204" height="55" viewBox="0 0 204 55" fill="none" xmlns="http://www.w3.org/2000/svg">
<g clip-path="url(#clip0_109_117)">
<path d="M33.108 49V34.425C33.108 31.775 32.3483 29.6373 30.829 28.012C29.3097 26.3867 27.278 25.574 24.734 25.574C23.0027 25.574 21.4657 25.9627 20.123 26.74C18.8157 27.482 17.7733 28.5067 16.996 29.814C16.254 31.1213 15.883 32.6407 15.883 34.372L14.77 33.736C14.77 31.8987 15.2117 30.2557 16.095 28.807C17.0137 27.3583 18.2327 26.21 19.752 25.362C21.3067 24.514 23.0557 24.09 24.999 24.09C26.9423 24.09 28.6383 24.5317 30.087 25.415C31.571 26.2983 32.7193 27.5173 33.532 29.072C34.3447 30.6267 34.751 32.411 34.751 34.425V49H33.108ZM14.24 49V24.62H15.883V49H14.24ZM45.9928 49.53C44.6855 49.53 43.4488 49.3533 42.2828 49C41.1521 48.6113 40.1275 48.099 39.2088 47.463C38.2901 46.7917 37.4775 46.032 36.7708 45.184L37.8838 44.018C38.9438 45.396 40.1628 46.4207 41.5408 47.092C42.9188 47.728 44.4205 48.046 46.0458 48.046C48.0598 48.046 49.6675 47.622 50.8688 46.774C52.0701 45.8907 52.6708 44.6893 52.6708 43.17C52.6708 41.8273 52.3175 40.7673 51.6108 39.99C50.9395 39.2127 50.0561 38.612 48.9608 38.188C47.8655 37.764 46.6995 37.3753 45.4628 37.022C44.2615 36.6687 43.1131 36.2623 42.0178 35.803C40.9225 35.3083 40.0215 34.637 39.3148 33.789C38.6435 32.9057 38.3078 31.722 38.3078 30.238C38.3078 29.0367 38.6258 27.9767 39.2618 27.058C39.8978 26.1393 40.7988 25.415 41.9648 24.885C43.1308 24.355 44.5088 24.09 46.0988 24.09C47.8301 24.09 49.4201 24.408 50.8688 25.044C52.3175 25.6447 53.4481 26.528 54.2608 27.694L53.1478 28.807C52.4411 27.8177 51.4518 27.0403 50.1798 26.475C48.9078 25.8743 47.4945 25.574 45.9398 25.574C43.9611 25.574 42.4595 26.0157 41.4348 26.899C40.4101 27.7823 39.8978 28.8777 39.8978 30.185C39.8978 31.4217 40.2335 32.3933 40.9048 33.1C41.6115 33.8067 42.5125 34.3543 43.6078 34.743C44.7031 35.1317 45.8515 35.5027 47.0528 35.856C48.2895 36.174 49.4555 36.598 50.5508 37.128C51.6461 37.6227 52.5295 38.3293 53.2008 39.248C53.9075 40.1313 54.2608 41.368 54.2608 42.958C54.2608 44.972 53.5011 46.5797 51.9818 47.781C50.4978 48.947 48.5015 49.53 45.9928 49.53ZM61.2564 49V14.232H62.8994V49H61.2564ZM54.7904 26.051V24.62H69.3124V26.051H54.7904ZM81.4179 49.53C79.0152 49.53 76.8599 48.9823 74.9519 47.887C73.0792 46.7563 71.5952 45.237 70.4999 43.329C69.4046 41.421 68.8569 39.2657 68.8569 36.863C68.8569 34.4603 69.4046 32.305 70.4999 30.397C71.5952 28.4537 73.0792 26.9167 74.9519 25.786C76.8246 24.6553 78.9446 24.09 81.3119 24.09C83.1846 24.09 84.8629 24.4433 86.3469 25.15C87.8662 25.8213 89.1206 26.793 90.1099 28.065C91.1346 29.337 91.8412 30.8563 92.2299 32.623V40.944C91.8059 42.7107 91.0816 44.2477 90.0569 45.555C89.0676 46.827 87.8309 47.8163 86.3469 48.523C84.8982 49.1943 83.2552 49.53 81.4179 49.53ZM81.6299 47.993C84.6686 47.993 87.0889 46.986 88.8909 44.972C90.6929 42.9227 91.5939 40.2197 91.5939 36.863C91.5939 34.6017 91.1699 32.6407 90.3219 30.98C89.5092 29.284 88.3432 27.9767 86.8239 27.058C85.3046 26.104 83.5379 25.627 81.5239 25.627C79.4039 25.627 77.5136 26.1217 75.8529 27.111C74.2276 28.065 72.9379 29.39 71.9839 31.086C71.0299 32.7467 70.5529 34.6547 70.5529 36.81C70.5529 38.9653 71.0299 40.891 71.9839 42.587C72.9379 44.2477 74.2452 45.5727 75.9059 46.562C77.6019 47.516 79.5099 47.993 81.6299 47.993ZM91.5409 49V42.481L92.0179 36.439L91.5409 30.556V24.62H93.1839V49H91.5409ZM108.918 49.53C106.551 49.53 104.413 48.9647 102.505 47.834C100.632 46.7033 99.1305 45.1663 97.9999 43.223C96.9045 41.2797 96.3569 39.1067 96.3569 36.704C96.3569 34.3367 96.9045 32.199 97.9999 30.291C99.1305 28.383 100.632 26.8813 102.505 25.786C104.413 24.6553 106.551 24.09 108.918 24.09C110.685 24.09 112.328 24.4257 113.847 25.097C115.402 25.733 116.727 26.634 117.822 27.8L116.709 28.913C115.755 27.8883 114.607 27.0933 113.264 26.528C111.921 25.9273 110.473 25.627 108.918 25.627C106.869 25.627 105.014 26.1217 103.353 27.111C101.728 28.065 100.438 29.3723 99.4839 31.033C98.5299 32.6937 98.0529 34.584 98.0529 36.704C98.0529 38.8593 98.5299 40.785 99.4839 42.481C100.438 44.177 101.728 45.5197 103.353 46.509C105.014 47.4983 106.869 47.993 108.918 47.993C110.508 47.993 111.974 47.7103 113.317 47.145C114.695 46.5443 115.879 45.714 116.868 44.654L117.981 45.767C116.85 46.9683 115.49 47.9047 113.9 48.576C112.345 49.212 110.685 49.53 108.918 49.53ZM120.478 49V12.112H122.121V49H120.478ZM138.096 49.53C135.658 49.53 133.467 48.9823 131.524 47.887C129.616 46.7563 128.096 45.237 126.966 43.329C125.87 41.3857 125.323 39.195 125.323 36.757C125.323 34.3543 125.853 32.199 126.913 30.291C128.008 28.383 129.492 26.8813 131.365 25.786C133.273 24.6553 135.41 24.09 137.778 24.09C139.968 24.09 141.894 24.5847 143.555 25.574C145.251 26.528 146.576 27.8707 147.53 29.602C148.484 31.3333 148.961 33.3297 148.961 35.591C148.961 35.7323 148.943 35.962 148.908 36.28C148.908 36.5627 148.872 36.9337 148.802 37.393H126.489V35.856H147.742L147.265 36.227C147.406 34.1423 147.088 32.305 146.311 30.715C145.533 29.125 144.403 27.8883 142.919 27.005C141.47 26.0863 139.739 25.627 137.725 25.627C135.605 25.627 133.732 26.104 132.107 27.058C130.517 27.9767 129.262 29.2663 128.344 30.927C127.46 32.5523 127.019 34.4603 127.019 36.651C127.019 38.9123 127.478 40.891 128.397 42.587C129.351 44.283 130.676 45.608 132.372 46.562C134.068 47.516 136.046 47.993 138.308 47.993C140.004 47.993 141.558 47.675 142.972 47.039C144.42 46.403 145.639 45.449 146.629 44.177L147.742 45.29C146.646 46.5973 145.251 47.6397 143.555 48.417C141.894 49.159 140.074 49.53 138.096 49.53ZM162.899 49.53C160.497 49.53 158.341 48.9823 156.433 47.887C154.561 46.7563 153.077 45.237 151.981 43.329C150.886 41.421 150.338 39.2657 150.338 36.863C150.338 34.4603 150.886 32.305 151.981 30.397C153.077 28.4537 154.561 26.9167 156.433 25.786C158.306 24.6553 160.426 24.09 162.793 24.09C164.666 24.09 166.344 24.4433 167.828 25.15C169.348 25.8213 170.602 26.793 171.591 28.065C172.616 29.337 173.323 30.8563 173.711 32.623V40.944C173.287 42.7107 172.563 44.2477 171.538 45.555C170.549 46.827 169.312 47.8163 167.828 48.523C166.38 49.1943 164.737 49.53 162.899 49.53ZM163.111 47.993C166.15 47.993 168.57 46.986 170.372 44.972C172.174 42.9227 173.075 40.2197 173.075 36.863C173.075 34.6017 172.651 32.6407 171.803 30.98C170.991 29.284 169.825 27.9767 168.305 27.058C166.786 26.104 165.019 25.627 163.005 25.627C160.885 25.627 158.995 26.1217 157.334 27.111C155.709 28.065 154.419 29.39 153.465 31.086C152.511 32.7467 152.034 34.6547 152.034 36.81C152.034 38.9653 152.511 40.891 153.465 42.587C154.419 44.2477 155.727 45.5727 157.387 46.562C159.083 47.516 160.991 47.993 163.111 47.993ZM173.022 49V42.481L173.499 36.439L173.022 30.556V24.62H174.665V49H173.022ZM198.296 49V34.425C198.296 31.775 197.537 29.6373 196.017 28.012C194.498 26.3867 192.466 25.574 189.922 25.574C188.191 25.574 186.654 25.9627 185.311 26.74C184.004 27.482 182.962 28.5067 182.184 29.814C181.442 31.1213 181.071 32.6407 181.071 34.372L179.958 33.736C179.958 31.8987 180.4 30.2557 181.283 28.807C182.202 27.3583 183.421 26.21 184.94 25.362C186.495 24.514 188.244 24.09 190.187 24.09C192.131 24.09 193.827 24.5317 195.275 25.415C196.759 26.2983 197.908 27.5173 198.72 29.072C199.533 30.6267 199.939 32.411 199.939 34.425V49H198.296ZM179.428 49V24.62H181.071V49H179.428Z" fill="black"/>
<mask id="path-2-inside-1_109_117" fill="white">
<path d="M20.2857 9.28571C18.0132 9.28312 15.8346 8.37923 14.2277 6.77234C12.6208 5.16545 11.7169 2.98678 11.7143 0.714286C11.7143 0.524845 11.639 0.343164 11.5051 0.209209C11.3711 0.0752549 11.1894 0 11 0C10.8106 0 10.6289 0.0752549 10.4949 0.209209C10.361 0.343164 10.2857 0.524845 10.2857 0.714286C10.2831 2.98678 9.37923 5.16545 7.77234 6.77234C6.16545 8.37923 3.98678 9.28312 1.71429 9.28571C1.52485 9.28571 1.34316 9.36097 1.20921 9.49492C1.07525 9.62888 1 9.81056 1 10C1 10.1894 1.07525 10.3711 1.20921 10.5051C1.34316 10.639 1.52485 10.7143 1.71429 10.7143C3.98678 10.7169 6.16545 11.6208 7.77234 13.2277C9.37923 14.8346 10.2831 17.0132 10.2857 19.2857C10.2857 19.4752 10.361 19.6568 10.4949 19.7908C10.6289 19.9247 10.8106 20 11 20C11.1894 20 11.3711 19.9247 11.5051 19.7908C11.639 19.6568 11.7143 19.4752 11.7143 19.2857C11.7169 17.0132 12.6208 14.8346 14.2277 13.2277C15.8346 11.6208 18.0132 10.7169 20.2857 10.7143C20.4752 10.7143 20.6568 10.639 20.7908 10.5051C20.9247 10.3711 21 10.1894 21 10C21 9.81056 20.9247 9.62888 20.7908 9.49492C20.6568 9.36097 20.4752 9.28571 20.2857 9.28571ZM11 15.5955C10.4949 14.3325 9.73845 13.1853 8.7766 12.2234C7.81474 11.2615 6.66751 10.5051 5.4045 10C6.66751 9.49488 7.81474 8.73845 8.7766 7.7766C9.73845 6.81474 10.4949 5.66751 11 4.4045C11.5051 5.66751 12.2615 6.81474 13.2234 7.7766C14.1853 8.73845 15.3325 9.49488 16.5955 10C15.3325 10.5051 14.1853 11.2615 13.2234 12.2234C12.2615 13.1853 11.5051 14.3325 11 15.5955Z"/>
</mask>
<path d="M20.2857 9.28571C18.0132 9.28312 15.8346 8.37923 14.2277 6.77234C12.6208 5.16545 11.7169 2.98678 11.7143 0.714286C11.7143 0.524845 11.639 0.343164 11.5051 0.209209C11.3711 0.0752549 11.1894 0 11 0C10.8106 0 10.6289 0.0752549 10.4949 0.209209C10.361 0.343164 10.2857 0.524845 10.2857 0.714286C10.2831 2.98678 9.37923 5.16545 7.77234 6.77234C6.16545 8.37923 3.98678 9.28312 1.71429 9.28571C1.52485 9.28571 1.34316 9.36097 1.20921 9.49492C1.07525 9.62888 1 9.81056 1 10C1 10.1894 1.07525 10.3711 1.20921 10.5051C1.34316 10.639 1.52485 10.7143 1.71429 10.7143C3.98678 10.7169 6.16545 11.6208 7.77234 13.2277C9.37923 14.8346 10.2831 17.0132 10.2857 19.2857C10.2857 19.4752 10.361 19.6568 10.4949 19.7908C10.6289 19.9247 10.8106 20 11 20C11.1894 20 11.3711 19.9247 11.5051 19.7908C11.639 19.6568 11.7143 19.4752 11.7143 19.2857C11.7169 17.0132 12.6208 14.8346 14.2277 13.2277C15.8346 11.6208 18.0132 10.7169 20.2857 10.7143C20.4752 10.7143 20.6568 10.639 20.7908 10.5051C20.9247 10.3711 21 10.1894 21 10C21 9.81056 20.9247 9.62888 20.7908 9.49492C20.6568 9.36097 20.4752 9.28571 20.2857 9.28571ZM11 15.5955C10.4949 14.3325 9.73845 13.1853 8.7766 12.2234C7.81474 11.2615 6.66751 10.5051 5.4045 10C6.66751 9.49488 7.81474 8.73845 8.7766 7.7766C9.73845 6.81474 10.4949 5.66751 11 4.4045C11.5051 5.66751 12.2615 6.81474 13.2234 7.7766C14.1853 8.73845 15.3325 9.49488 16.5955 10C15.3325 10.5051 14.1853 11.2615 13.2234 12.2234C12.2615 13.1853 11.5051 14.3325 11 15.5955Z" fill="black"/>
<path d="M20.2857 9.28571L20.2789 15.2857H20.2857V9.28571ZM11.7143 0.714286L5.71428 0.714286L5.71429 0.721124L11.7143 0.714286ZM11 0L11 -6L11 0ZM10.2857 0.714286L16.2857 0.721124V0.714286H10.2857ZM1.71429 9.28571L1.71429 15.2857L1.72112 15.2857L1.71429 9.28571ZM1 10L-5 10L1 10ZM1.71429 10.7143L1.72112 4.71429H1.71429V10.7143ZM10.2857 19.2857L16.2857 19.2857L16.2857 19.2789L10.2857 19.2857ZM11.7143 19.2857L5.71429 19.2789V19.2857H11.7143ZM20.2857 10.7143L20.2857 4.71428L20.2789 4.71429L20.2857 10.7143ZM11 15.5955L5.42901 17.8235C6.3401 20.1016 8.54644 21.5955 11 21.5955C13.4536 21.5955 15.6599 20.1016 16.571 17.8235L11 15.5955ZM5.4045 10L3.17648 4.42901C0.89836 5.3401 -0.5955 7.54644 -0.5955 10C-0.5955 12.4536 0.89836 14.6599 3.17648 15.571L5.4045 10ZM11 4.4045L16.571 2.17648C15.6599 -0.10164 13.4536 -1.5955 11 -1.5955C8.54644 -1.5955 6.3401 -0.10164 5.42901 2.17648L11 4.4045ZM16.5955 10L18.8235 15.571C21.1016 14.6599 22.5955 12.4536 22.5955 10C22.5955 7.54644 21.1016 5.3401 18.8235 4.42901L16.5955 10ZM20.2926 3.28572C19.609 3.28494 18.9537 3.01305 18.4703 2.5297L9.98502 11.015C12.7155 13.7454 16.4175 15.2813 20.2789 15.2857L20.2926 3.28572ZM18.4703 2.5297C17.9869 2.04635 17.7151 1.39101 17.7143 0.707447L5.71429 0.721124C5.71869 4.58254 7.25458 8.28454 9.98502 11.015L18.4703 2.5297ZM17.7143 0.714286C17.7143 -1.06643 17.0069 -2.77424 15.7477 -4.03343L7.26244 4.45185C6.27116 3.46057 5.71429 2.11612 5.71429 0.714286L17.7143 0.714286ZM15.7477 -4.03343C14.4885 -5.29261 12.7807 -6 11 -6L11 6C9.59815 6 8.25371 5.44312 7.26244 4.45185L15.7477 -4.03343ZM11 -6C9.21927 -6 7.51146 -5.29261 6.25228 -4.03343L14.7376 4.45185C13.7463 5.44312 12.4018 6 11 6L11 -6ZM6.25228 -4.03343C4.99309 -2.77424 4.28571 -1.06643 4.28571 0.714286H16.2857C16.2857 2.11612 15.7288 3.46057 14.7376 4.45185L6.25228 -4.03343ZM4.28572 0.707447C4.28494 1.39101 4.01305 2.04635 3.5297 2.5297L12.015 11.015C14.7454 8.28455 16.2813 4.58254 16.2857 0.721124L4.28572 0.707447ZM3.5297 2.5297C3.04635 3.01305 2.39101 3.28494 1.70745 3.28572L1.72112 15.2857C5.58254 15.2813 9.28455 13.7454 12.015 11.015L3.5297 2.5297ZM1.71429 3.28571C-0.0664327 3.28571 -1.77424 3.99309 -3.03343 5.25228L5.45185 13.7376C4.46057 14.7288 3.11612 15.2857 1.71429 15.2857V3.28571ZM-3.03343 5.25228C-4.29261 6.51146 -5 8.21927 -5 10L7 10C7 11.4018 6.44312 12.7463 5.45185 13.7376L-3.03343 5.25228ZM-5 10C-5 11.7807 -4.29261 13.4885 -3.03343 14.7477L5.45185 6.26244C6.44312 7.25371 7 8.59815 7 10L-5 10ZM-3.03343 14.7477C-1.77424 16.0069 -0.0664327 16.7143 1.71429 16.7143V4.71429C3.11612 4.71429 4.46057 5.27116 5.45185 6.26244L-3.03343 14.7477ZM1.70745 16.7143C2.39101 16.7151 3.04635 16.9869 3.5297 17.4703L12.015 8.98502C9.28454 6.25458 5.58254 4.71869 1.72112 4.71429L1.70745 16.7143ZM3.5297 17.4703C4.01305 17.9537 4.28494 18.609 4.28572 19.2926L16.2857 19.2789C16.2813 15.4175 14.7454 11.7155 12.015 8.98502L3.5297 17.4703ZM4.28571 19.2857C4.28571 21.0664 4.99309 22.7742 6.25228 24.0334L14.7376 15.5481C15.7288 16.5394 16.2857 17.8839 16.2857 19.2857L4.28571 19.2857ZM6.25228 24.0334C7.51146 25.2926 9.21927 26 11 26V14C12.4018 14 13.7463 14.5569 14.7376 15.5481L6.25228 24.0334ZM11 26C12.7807 26 14.4885 25.2926 15.7477 24.0334L7.26244 15.5481C8.25371 14.5569 9.59815 14 11 14V26ZM15.7477 24.0334C17.0069 22.7742 17.7143 21.0664 17.7143 19.2857H5.71429C5.71429 17.8839 6.27115 16.5394 7.26244 15.5481L15.7477 24.0334ZM17.7143 19.2926C17.7151 18.609 17.9869 17.9537 18.4703 17.4703L9.98502 8.98502C7.25458 11.7155 5.71869 15.4175 5.71429 19.2789L17.7143 19.2926ZM18.4703 17.4703C18.9537 16.9869 19.609 16.7151 20.2926 16.7143L20.2789 4.71429C16.4175 4.71869 12.7155 6.25458 9.98502 8.98502L18.4703 17.4703ZM20.2857 16.7143C22.0664 16.7143 23.7742 16.0069 25.0334 14.7477L16.5481 6.26244C17.5394 5.27115 18.8839 4.71429 20.2857 4.71429L20.2857 16.7143ZM25.0334 14.7477C26.2926 13.4885 27 11.7807 27 10H15C15 8.59815 15.5569 7.25371 16.5481 6.26244L25.0334 14.7477ZM27 10C27 8.21927 26.2926 6.51146 25.0334 5.25228L16.5481 13.7376C15.5569 12.7463 15 11.4018 15 10H27ZM25.0334 5.25228C23.7742 3.99309 22.0664 3.28571 20.2857 3.28571V15.2857C18.8839 15.2857 17.5394 14.7288 16.5481 13.7376L25.0334 5.25228ZM16.571 13.3675C15.7641 11.3499 14.5557 9.51727 13.0192 7.98076L4.53395 16.466C4.92116 16.8532 5.22567 17.3151 5.42901 17.8235L16.571 13.3675ZM13.0192 7.98076C11.4827 6.44425 9.6501 5.2359 7.63252 4.42901L3.17648 15.571C3.68492 15.7743 4.14675 16.0788 4.53395 16.466L13.0192 7.98076ZM7.63252 15.571C9.6501 14.7641 11.4827 13.5557 13.0192 12.0192L4.53395 3.53395C4.14675 3.92116 3.68492 4.22567 3.17648 4.42901L7.63252 15.571ZM13.0192 12.0192C14.5557 10.4827 15.7641 8.6501 16.571 6.63252L5.42901 2.17648C5.22567 2.68492 4.92116 3.14675 4.53395 3.53395L13.0192 12.0192ZM5.42901 6.63252C6.2359 8.6501 7.44425 10.4827 8.98076 12.0192L17.466 3.53395C17.0788 3.14675 16.7743 2.68492 16.571 2.17648L5.42901 6.63252ZM8.98076 12.0192C10.5173 13.5557 12.3499 14.7641 14.3675 15.571L18.8235 4.42901C18.3151 4.22567 17.8532 3.92116 17.466 3.53395L8.98076 12.0192ZM14.3675 4.42901C12.3499 5.2359 10.5173 6.44425 8.98076 7.98076L17.466 16.466C17.8532 16.0788 18.3151 15.7743 18.8235 15.571L14.3675 4.42901ZM8.98076 7.98076C7.44425 9.51727 6.2359 11.3499 5.42901 13.3675L16.571 17.8235C16.7743 17.3151 17.0788 16.8532 17.466 16.466L8.98076 7.98076Z" fill="#54AFBC" mask="url(#path-2-inside-1_109_117)"/>
<path d="M10 24H12V49H10V24Z" fill="black"/>
</g>
<defs>
<clipPath id="clip0_109_117">
<rect width="204" height="55" fill="white"/>
</clipPath>
</defs>
</svg>
