<svg width="201" height="45" viewBox="0 0 201 45" fill="none" xmlns="http://www.w3.org/2000/svg">
<g clip-path="url(#clip0_55_332)">
<path d="M30.108 39V24.425C30.108 21.775 29.3483 19.6373 27.829 18.012C26.3097 16.3867 24.278 15.574 21.734 15.574C20.0027 15.574 18.4657 15.9627 17.123 16.74C15.8157 17.482 14.7733 18.5067 13.996 19.814C13.254 21.1213 12.883 22.6407 12.883 24.372L11.77 23.736C11.77 21.8987 12.2117 20.2557 13.095 18.807C14.0137 17.3583 15.2327 16.21 16.752 15.362C18.3067 14.514 20.0557 14.09 21.999 14.09C23.9423 14.09 25.6383 14.5317 27.087 15.415C28.571 16.2983 29.7193 17.5173 30.532 19.072C31.3447 20.6267 31.751 22.411 31.751 24.425V39H30.108ZM11.24 39V14.62H12.883V39H11.24ZM42.9928 39.53C41.6855 39.53 40.4488 39.3533 39.2828 39C38.1521 38.6113 37.1275 38.099 36.2088 37.463C35.2901 36.7917 34.4775 36.032 33.7708 35.184L34.8838 34.018C35.9438 35.396 37.1628 36.4207 38.5408 37.092C39.9188 37.728 41.4205 38.046 43.0458 38.046C45.0598 38.046 46.6675 37.622 47.8688 36.774C49.0701 35.8907 49.6708 34.6893 49.6708 33.17C49.6708 31.8273 49.3175 30.7673 48.6108 29.99C47.9395 29.2127 47.0561 28.612 45.9608 28.188C44.8655 27.764 43.6995 27.3753 42.4628 27.022C41.2615 26.6687 40.1131 26.2623 39.0178 25.803C37.9225 25.3083 37.0215 24.637 36.3148 23.789C35.6435 22.9057 35.3078 21.722 35.3078 20.238C35.3078 19.0367 35.6258 17.9767 36.2618 17.058C36.8978 16.1393 37.7988 15.415 38.9648 14.885C40.1308 14.355 41.5088 14.09 43.0988 14.09C44.8301 14.09 46.4201 14.408 47.8688 15.044C49.3175 15.6447 50.4481 16.528 51.2608 17.694L50.1478 18.807C49.4411 17.8177 48.4518 17.0403 47.1798 16.475C45.9078 15.8743 44.4945 15.574 42.9398 15.574C40.9611 15.574 39.4595 16.0157 38.4348 16.899C37.4101 17.7823 36.8978 18.8777 36.8978 20.185C36.8978 21.4217 37.2335 22.3933 37.9048 23.1C38.6115 23.8067 39.5125 24.3543 40.6078 24.743C41.7031 25.1317 42.8515 25.5027 44.0528 25.856C45.2895 26.174 46.4555 26.598 47.5508 27.128C48.6461 27.6227 49.5295 28.3293 50.2008 29.248C50.9075 30.1313 51.2608 31.368 51.2608 32.958C51.2608 34.972 50.5011 36.5797 48.9818 37.781C47.4978 38.947 45.5015 39.53 42.9928 39.53ZM58.2564 39V4.232H59.8994V39H58.2564ZM51.7904 16.051V14.62H66.3124V16.051H51.7904ZM78.4179 39.53C76.0152 39.53 73.8599 38.9823 71.9519 37.887C70.0792 36.7563 68.5952 35.237 67.4999 33.329C66.4046 31.421 65.8569 29.2657 65.8569 26.863C65.8569 24.4603 66.4046 22.305 67.4999 20.397C68.5952 18.4537 70.0792 16.9167 71.9519 15.786C73.8246 14.6553 75.9446 14.09 78.3119 14.09C80.1846 14.09 81.8629 14.4433 83.3469 15.15C84.8662 15.8213 86.1206 16.793 87.1099 18.065C88.1346 19.337 88.8412 20.8563 89.2299 22.623V30.944C88.8059 32.7107 88.0816 34.2477 87.0569 35.555C86.0676 36.827 84.8309 37.8163 83.3469 38.523C81.8982 39.1943 80.2552 39.53 78.4179 39.53ZM78.6299 37.993C81.6686 37.993 84.0889 36.986 85.8909 34.972C87.6929 32.9227 88.5939 30.2197 88.5939 26.863C88.5939 24.6017 88.1699 22.6407 87.3219 20.98C86.5092 19.284 85.3432 17.9767 83.8239 17.058C82.3046 16.104 80.5379 15.627 78.5239 15.627C76.4039 15.627 74.5136 16.1217 72.8529 17.111C71.2276 18.065 69.9379 19.39 68.9839 21.086C68.0299 22.7467 67.5529 24.6547 67.5529 26.81C67.5529 28.9653 68.0299 30.891 68.9839 32.587C69.9379 34.2477 71.2452 35.5727 72.9059 36.562C74.6019 37.516 76.5099 37.993 78.6299 37.993ZM88.5409 39V32.481L89.0179 26.439L88.5409 20.556V14.62H90.1839V39H88.5409ZM105.918 39.53C103.551 39.53 101.413 38.9647 99.5049 37.834C97.6322 36.7033 96.1305 35.1663 94.9999 33.223C93.9045 31.2797 93.3569 29.1067 93.3569 26.704C93.3569 24.3367 93.9045 22.199 94.9999 20.291C96.1305 18.383 97.6322 16.8813 99.5049 15.786C101.413 14.6553 103.551 14.09 105.918 14.09C107.685 14.09 109.328 14.4257 110.847 15.097C112.402 15.733 113.727 16.634 114.822 17.8L113.709 18.913C112.755 17.8883 111.607 17.0933 110.264 16.528C108.921 15.9273 107.473 15.627 105.918 15.627C103.869 15.627 102.014 16.1217 100.353 17.111C98.7275 18.065 97.4379 19.3723 96.4839 21.033C95.5299 22.6937 95.0529 24.584 95.0529 26.704C95.0529 28.8593 95.5299 30.785 96.4839 32.481C97.4379 34.177 98.7275 35.5197 100.353 36.509C102.014 37.4983 103.869 37.993 105.918 37.993C107.508 37.993 108.974 37.7103 110.317 37.145C111.695 36.5443 112.879 35.714 113.868 34.654L114.981 35.767C113.85 36.9683 112.49 37.9047 110.9 38.576C109.345 39.212 107.685 39.53 105.918 39.53ZM117.478 39V2.112H119.121V39H117.478ZM135.096 39.53C132.658 39.53 130.467 38.9823 128.524 37.887C126.616 36.7563 125.096 35.237 123.966 33.329C122.87 31.3857 122.323 29.195 122.323 26.757C122.323 24.3543 122.853 22.199 123.913 20.291C125.008 18.383 126.492 16.8813 128.365 15.786C130.273 14.6553 132.41 14.09 134.778 14.09C136.968 14.09 138.894 14.5847 140.555 15.574C142.251 16.528 143.576 17.8707 144.53 19.602C145.484 21.3333 145.961 23.3297 145.961 25.591C145.961 25.7323 145.943 25.962 145.908 26.28C145.908 26.5627 145.872 26.9337 145.802 27.393H123.489V25.856H144.742L144.265 26.227C144.406 24.1423 144.088 22.305 143.311 20.715C142.533 19.125 141.403 17.8883 139.919 17.005C138.47 16.0863 136.739 15.627 134.725 15.627C132.605 15.627 130.732 16.104 129.107 17.058C127.517 17.9767 126.262 19.2663 125.344 20.927C124.46 22.5523 124.019 24.4603 124.019 26.651C124.019 28.9123 124.478 30.891 125.397 32.587C126.351 34.283 127.676 35.608 129.372 36.562C131.068 37.516 133.046 37.993 135.308 37.993C137.004 37.993 138.558 37.675 139.972 37.039C141.42 36.403 142.639 35.449 143.629 34.177L144.742 35.29C143.646 36.5973 142.251 37.6397 140.555 38.417C138.894 39.159 137.074 39.53 135.096 39.53ZM159.899 39.53C157.497 39.53 155.341 38.9823 153.433 37.887C151.561 36.7563 150.077 35.237 148.981 33.329C147.886 31.421 147.338 29.2657 147.338 26.863C147.338 24.4603 147.886 22.305 148.981 20.397C150.077 18.4537 151.561 16.9167 153.433 15.786C155.306 14.6553 157.426 14.09 159.793 14.09C161.666 14.09 163.344 14.4433 164.828 15.15C166.348 15.8213 167.602 16.793 168.591 18.065C169.616 19.337 170.323 20.8563 170.711 22.623V30.944C170.287 32.7107 169.563 34.2477 168.538 35.555C167.549 36.827 166.312 37.8163 164.828 38.523C163.38 39.1943 161.737 39.53 159.899 39.53ZM160.111 37.993C163.15 37.993 165.57 36.986 167.372 34.972C169.174 32.9227 170.075 30.2197 170.075 26.863C170.075 24.6017 169.651 22.6407 168.803 20.98C167.991 19.284 166.825 17.9767 165.305 17.058C163.786 16.104 162.019 15.627 160.005 15.627C157.885 15.627 155.995 16.1217 154.334 17.111C152.709 18.065 151.419 19.39 150.465 21.086C149.511 22.7467 149.034 24.6547 149.034 26.81C149.034 28.9653 149.511 30.891 150.465 32.587C151.419 34.2477 152.727 35.5727 154.387 36.562C156.083 37.516 157.991 37.993 160.111 37.993ZM170.022 39V32.481L170.499 26.439L170.022 20.556V14.62H171.665V39H170.022ZM195.296 39V24.425C195.296 21.775 194.537 19.6373 193.017 18.012C191.498 16.3867 189.466 15.574 186.922 15.574C185.191 15.574 183.654 15.9627 182.311 16.74C181.004 17.482 179.962 18.5067 179.184 19.814C178.442 21.1213 178.071 22.6407 178.071 24.372L176.958 23.736C176.958 21.8987 177.4 20.2557 178.283 18.807C179.202 17.3583 180.421 16.21 181.94 15.362C183.495 14.514 185.244 14.09 187.187 14.09C189.131 14.09 190.827 14.5317 192.275 15.415C193.759 16.2983 194.908 17.5173 195.72 19.072C196.533 20.6267 196.939 22.411 196.939 24.425V39H195.296ZM176.428 39V14.62H178.071V39H176.428Z" fill="white"/>
<mask id="path-2-inside-1_55_332" fill="white">
<path d="M10.275 5.57143C9.16094 5.56987 8.09286 5.02754 7.30509 4.0634C6.51732 3.09927 6.0742 1.79206 6.07293 0.428571C6.07293 0.314907 6.03603 0.205898 5.97036 0.125526C5.90469 0.0451529 5.81562 0 5.72275 0C5.62988 0 5.54081 0.0451529 5.47514 0.125526C5.40947 0.205898 5.37258 0.314907 5.37258 0.428571C5.37131 1.79206 4.92818 3.09927 4.14041 4.0634C3.35264 5.02754 2.28456 5.56987 1.17049 5.57143C1.07761 5.57143 0.988547 5.61658 0.922876 5.69695C0.857206 5.77733 0.820313 5.88634 0.820312 6C0.820313 6.11366 0.857206 6.22267 0.922876 6.30305C0.988547 6.38342 1.07761 6.42857 1.17049 6.42857C2.28456 6.43013 3.35264 6.97246 4.14041 7.9366C4.92818 8.90073 5.37131 10.2079 5.37258 11.5714C5.37258 11.6851 5.40947 11.7941 5.47514 11.8745C5.54081 11.9548 5.62988 12 5.72275 12C5.81562 12 5.90469 11.9548 5.97036 11.8745C6.03603 11.7941 6.07293 11.6851 6.07293 11.5714C6.0742 10.2079 6.51732 8.90073 7.30509 7.9366C8.09286 6.97246 9.16094 6.43013 10.275 6.42857C10.3679 6.42857 10.457 6.38342 10.5226 6.30305C10.5883 6.22267 10.6252 6.11366 10.6252 6C10.6252 5.88634 10.5883 5.77733 10.5226 5.69695C10.457 5.61658 10.3679 5.57143 10.275 5.57143ZM5.72275 9.3573C5.47512 8.59949 5.10428 7.91116 4.63274 7.33404C4.1612 6.75693 3.59877 6.30307 2.97959 6C3.59877 5.69693 4.1612 5.24307 4.63274 4.66596C5.10428 4.08884 5.47512 3.4005 5.72275 2.6427C5.97038 3.4005 6.34122 4.08884 6.81276 4.66596C7.28431 5.24307 7.84673 5.69693 8.46591 6C7.84673 6.30307 7.28431 6.75693 6.81276 7.33404C6.34122 7.91116 5.97038 8.59949 5.72275 9.3573Z"/>
</mask>
<path d="M10.275 5.57143C9.16094 5.56987 8.09286 5.02754 7.30509 4.0634C6.51732 3.09927 6.0742 1.79206 6.07293 0.428571C6.07293 0.314907 6.03603 0.205898 5.97036 0.125526C5.90469 0.0451529 5.81562 0 5.72275 0C5.62988 0 5.54081 0.0451529 5.47514 0.125526C5.40947 0.205898 5.37258 0.314907 5.37258 0.428571C5.37131 1.79206 4.92818 3.09927 4.14041 4.0634C3.35264 5.02754 2.28456 5.56987 1.17049 5.57143C1.07761 5.57143 0.988547 5.61658 0.922876 5.69695C0.857206 5.77733 0.820313 5.88634 0.820312 6C0.820313 6.11366 0.857206 6.22267 0.922876 6.30305C0.988547 6.38342 1.07761 6.42857 1.17049 6.42857C2.28456 6.43013 3.35264 6.97246 4.14041 7.9366C4.92818 8.90073 5.37131 10.2079 5.37258 11.5714C5.37258 11.6851 5.40947 11.7941 5.47514 11.8745C5.54081 11.9548 5.62988 12 5.72275 12C5.81562 12 5.90469 11.9548 5.97036 11.8745C6.03603 11.7941 6.07293 11.6851 6.07293 11.5714C6.0742 10.2079 6.51732 8.90073 7.30509 7.9366C8.09286 6.97246 9.16094 6.43013 10.275 6.42857C10.3679 6.42857 10.457 6.38342 10.5226 6.30305C10.5883 6.22267 10.6252 6.11366 10.6252 6C10.6252 5.88634 10.5883 5.77733 10.5226 5.69695C10.457 5.61658 10.3679 5.57143 10.275 5.57143ZM5.72275 9.3573C5.47512 8.59949 5.10428 7.91116 4.63274 7.33404C4.1612 6.75693 3.59877 6.30307 2.97959 6C3.59877 5.69693 4.1612 5.24307 4.63274 4.66596C5.10428 4.08884 5.47512 3.4005 5.72275 2.6427C5.97038 3.4005 6.34122 4.08884 6.81276 4.66596C7.28431 5.24307 7.84673 5.69693 8.46591 6C7.84673 6.30307 7.28431 6.75693 6.81276 7.33404C6.34122 7.91116 5.97038 8.59949 5.72275 9.3573Z" fill="black"/>
<path d="M10.275 5.57143L10.2666 11.5714H10.275V5.57143ZM6.07293 0.428571L0.0729233 0.428571L0.0729285 0.434159L6.07293 0.428571ZM5.72275 0L5.72275 -6L5.72275 0ZM5.37258 0.428571L11.3726 0.434159V0.428571H5.37258ZM1.17049 5.57143L1.17049 11.5714L1.17886 11.5714L1.17049 5.57143ZM0.820312 6L-5.17969 6L0.820312 6ZM1.17049 6.42857L1.17886 0.428571H1.17049V6.42857ZM5.37258 11.5714L11.3726 11.5714L11.3726 11.5658L5.37258 11.5714ZM6.07293 11.5714L0.0729259 11.5658V11.5714H6.07293ZM10.275 6.42857L10.275 0.428566L10.2666 0.428577L10.275 6.42857ZM5.72275 9.3573L0.0195283 11.221C0.825765 13.6882 3.1271 15.3573 5.72275 15.3573C8.3184 15.3573 10.6197 13.6882 11.426 11.221L5.72275 9.3573ZM2.97959 6L0.341808 0.610928C-1.71586 1.61809 -3.02041 3.70907 -3.02041 6C-3.02041 8.29093 -1.71586 10.3819 0.341808 11.3891L2.97959 6ZM5.72275 2.6427L11.426 0.779036C10.6197 -1.68823 8.3184 -3.3573 5.72275 -3.3573C3.1271 -3.3573 0.825765 -1.68823 0.0195283 0.779036L5.72275 2.6427ZM8.46591 6L11.1037 11.3891C13.1614 10.3819 14.4659 8.29093 14.4659 6C14.4659 3.70907 13.1614 1.61809 11.1037 0.610928L8.46591 6ZM10.2834 -0.428566C11.1935 -0.427296 11.7527 0.0239087 11.9514 0.267063L2.65882 7.85974C4.43304 10.0312 7.1284 11.567 10.2666 11.5714L10.2834 -0.428566ZM11.9514 0.267063C12.0464 0.383388 12.0734 0.460326 12.0765 0.469484C12.0801 0.480191 12.073 0.461908 12.0729 0.422984L0.0729285 0.434159C0.0753542 3.03902 0.911889 5.7217 2.65882 7.85974L11.9514 0.267063ZM12.0729 0.428571C12.0729 -0.928138 11.6428 -2.41487 10.6166 -3.67081L1.3241 3.92187C0.42924 2.82667 0.0729259 1.55795 0.0729259 0.428571L12.0729 0.428571ZM10.6166 -3.67081C9.56298 -4.96036 7.8432 -6 5.72275 -6L5.72275 6C3.78804 6 2.24641 5.05066 1.3241 3.92187L10.6166 -3.67081ZM5.72275 -6C3.60231 -6 1.88253 -4.96036 0.828873 -3.67081L10.1214 3.92187C9.19909 5.05067 7.65745 6 5.72275 6L5.72275 -6ZM0.828873 -3.67081C-0.197323 -2.41487 -0.627423 -0.928138 -0.627423 0.428571H11.3726C11.3726 1.55795 11.0163 2.82667 10.1214 3.92187L0.828873 -3.67081ZM-0.62742 0.422984C-0.627456 0.461907 -0.634584 0.480189 -0.630954 0.469483C-0.62785 0.460325 -0.600902 0.383388 -0.505856 0.267063L8.78668 7.85974C10.5336 5.7217 11.3701 3.03902 11.3726 0.434159L-0.62742 0.422984ZM-0.505856 0.267063C-0.307181 0.0239084 0.252021 -0.427296 1.16212 -0.428566L1.17886 11.5714C4.3171 11.567 7.01246 10.0312 8.78668 7.85974L-0.505856 0.267063ZM1.17049 -0.428572C-0.949955 -0.428572 -2.66973 0.611061 -3.72339 1.90061L5.56914 9.49329C4.64683 10.6221 3.10518 11.5714 1.17049 11.5714V-0.428572ZM-3.72339 1.90061C-4.74959 3.15655 -5.17969 4.64329 -5.17969 6L6.82031 6C6.82031 7.12938 6.464 8.3981 5.56914 9.49329L-3.72339 1.90061ZM-5.17969 6C-5.17969 7.35672 -4.74958 8.84345 -3.72339 10.0994L5.56914 2.50671C6.46399 3.6019 6.82031 4.87061 6.82031 6L-5.17969 6ZM-3.72339 10.0994C-2.66973 11.3889 -0.949955 12.4286 1.17049 12.4286V0.428571C3.10518 0.428571 4.64683 1.3779 5.56914 2.50671L-3.72339 10.0994ZM1.16212 12.4286C0.252023 12.4273 -0.307179 11.9761 -0.505856 11.7329L8.78668 4.14025C7.01246 1.96883 4.3171 0.432955 1.17886 0.428577L1.16212 12.4286ZM-0.505856 11.7329C-0.600902 11.6166 -0.62785 11.5397 -0.630954 11.5305C-0.634583 11.5198 -0.627456 11.5381 -0.62742 11.577L11.3726 11.5658C11.3701 8.96098 10.5336 6.27829 8.78668 4.14025L-0.505856 11.7329ZM-0.627423 11.5714C-0.627423 12.9281 -0.197328 14.4149 0.828873 15.6708L10.1214 8.07813C11.0163 9.17334 11.3726 10.4421 11.3726 11.5714L-0.627423 11.5714ZM0.828873 15.6708C1.88251 16.9603 3.60228 18 5.72275 18V6C7.65748 6 9.19911 6.94936 10.1214 8.07813L0.828873 15.6708ZM5.72275 18C7.84323 18 9.563 16.9603 10.6166 15.6708L1.3241 8.07813C2.24638 6.94936 3.78801 6 5.72275 6V18ZM10.6166 15.6708C11.6428 14.4149 12.0729 12.9281 12.0729 11.5714H0.0729259C0.0729259 10.4421 0.429235 9.17334 1.3241 8.07813L10.6166 15.6708ZM12.0729 11.577C12.073 11.5381 12.0801 11.5198 12.0765 11.5305C12.0734 11.5397 12.0464 11.6166 11.9514 11.7329L2.65882 4.14025C0.911889 6.2783 0.0753542 8.96098 0.0729285 11.5658L12.0729 11.577ZM11.9514 11.7329C11.7527 11.9761 11.1935 12.4273 10.2834 12.4286L10.2666 0.428577C7.1284 0.432955 4.43304 1.96883 2.65882 4.14025L11.9514 11.7329ZM10.275 12.4286C12.3954 12.4286 14.1152 11.3889 15.1689 10.0994L5.87636 2.50671C6.79868 1.37789 8.34033 0.428571 10.275 0.428571L10.275 12.4286ZM15.1689 10.0994C16.1951 8.84347 16.6252 7.35674 16.6252 6H4.62519C4.62519 4.87059 4.98152 3.60188 5.87636 2.50671L15.1689 10.0994ZM16.6252 6C16.6252 4.64326 16.1951 3.15654 15.1689 1.90061L5.87636 9.49329C4.98152 8.39812 4.62519 7.12941 4.62519 6H16.6252ZM15.1689 1.90061C14.1152 0.611052 12.3954 -0.428572 10.275 -0.428572V11.5714C8.34033 11.5714 6.79868 10.6221 5.87636 9.49329L15.1689 1.90061ZM11.426 7.49364C10.9645 6.08139 10.251 4.72728 9.27901 3.5377L-0.0135264 11.1304C-0.0292421 11.1111 -0.0293097 11.1073 -0.0204968 11.1237C-0.0117344 11.1399 0.00352518 11.172 0.0195283 11.221L11.426 7.49364ZM9.27901 3.5377C8.30551 2.34626 7.07439 1.32409 5.61738 0.610928L0.341808 11.3891C0.123153 11.282 0.0168833 11.1676 -0.0135264 11.1304L9.27901 3.5377ZM5.61738 11.3891C7.0744 10.6759 8.30551 9.65374 9.27901 8.4623L-0.0135264 0.869617C0.0168811 0.832401 0.12315 0.717954 0.341808 0.610928L5.61738 11.3891ZM9.27901 8.4623C10.251 7.27272 10.9645 5.91861 11.426 4.50636L0.0195283 0.779036C0.00352507 0.82801 -0.0117346 0.860081 -0.0204971 0.876346C-0.0293101 0.892704 -0.0292425 0.888851 -0.0135264 0.869617L9.27901 8.4623ZM0.0195283 4.50636C0.481011 5.9186 1.19452 7.27272 2.16649 8.4623L11.459 0.869617C11.4747 0.888852 11.4748 0.892706 11.466 0.876347C11.4572 0.860083 11.442 0.828011 11.426 0.779036L0.0195283 4.50636ZM2.16649 8.4623C3.13999 9.65374 4.3711 10.6759 5.82813 11.3891L11.1037 0.610928C11.3224 0.717955 11.4286 0.832402 11.459 0.869617L2.16649 8.4623ZM5.82813 0.610928C4.37111 1.32409 3.13999 2.34626 2.16649 3.5377L11.459 11.1304C11.4286 11.1676 11.3224 11.282 11.1037 11.3891L5.82813 0.610928ZM2.16649 3.5377C1.19452 4.72728 0.481011 6.0814 0.0195283 7.49364L11.426 11.221C11.442 11.172 11.4572 11.1399 11.466 11.1237C11.4748 11.1073 11.4747 11.1111 11.459 11.1304L2.16649 3.5377Z" fill="#54AFBC" mask="url(#path-2-inside-1_55_332)"/>
<rect x="6.10962" y="14" width="2" height="25" fill="white"/>
</g>
<defs>
<clipPath id="clip0_55_332">
<rect width="201" height="45" fill="white"/>
</clipPath>
</defs>
</svg>
