<svg width="365" height="157" viewBox="0 0 365 157" fill="none" xmlns="http://www.w3.org/2000/svg">
<path d="M101.108 101V86.425C101.108 83.775 100.348 81.6373 98.829 80.012C97.3097 78.3867 95.278 77.574 92.734 77.574C91.0027 77.574 89.4657 77.9627 88.123 78.74C86.8157 79.482 85.7733 80.5067 84.996 81.814C84.254 83.1213 83.883 84.6407 83.883 86.372L82.77 85.736C82.77 83.8987 83.2117 82.2557 84.095 80.807C85.0137 79.3583 86.2327 78.21 87.752 77.362C89.3067 76.514 91.0557 76.09 92.999 76.09C94.9423 76.09 96.6383 76.5317 98.087 77.415C99.571 78.2983 100.719 79.5173 101.532 81.072C102.345 82.6267 102.751 84.411 102.751 86.425V101H101.108ZM82.24 101V76.62H83.883V101H82.24ZM113.993 101.53C112.685 101.53 111.449 101.353 110.283 101C109.152 100.611 108.127 100.099 107.209 99.463C106.29 98.7917 105.477 98.032 104.771 97.184L105.884 96.018C106.944 97.396 108.163 98.4207 109.541 99.092C110.919 99.728 112.42 100.046 114.046 100.046C116.06 100.046 117.667 99.622 118.869 98.774C120.07 97.8907 120.671 96.6893 120.671 95.17C120.671 93.8273 120.317 92.7673 119.611 91.99C118.939 91.2127 118.056 90.612 116.961 90.188C115.865 89.764 114.699 89.3753 113.463 89.022C112.261 88.6687 111.113 88.2623 110.018 87.803C108.922 87.3083 108.021 86.637 107.315 85.789C106.643 84.9057 106.308 83.722 106.308 82.238C106.308 81.0367 106.626 79.9767 107.262 79.058C107.898 78.1393 108.799 77.415 109.965 76.885C111.131 76.355 112.509 76.09 114.099 76.09C115.83 76.09 117.42 76.408 118.869 77.044C120.317 77.6447 121.448 78.528 122.261 79.694L121.148 80.807C120.441 79.8177 119.452 79.0403 118.18 78.475C116.908 77.8743 115.494 77.574 113.94 77.574C111.961 77.574 110.459 78.0157 109.435 78.899C108.41 79.7823 107.898 80.8777 107.898 82.185C107.898 83.4217 108.233 84.3933 108.905 85.1C109.611 85.8067 110.512 86.3543 111.608 86.743C112.703 87.1317 113.851 87.5027 115.053 87.856C116.289 88.174 117.455 88.598 118.551 89.128C119.646 89.6227 120.529 90.3293 121.201 91.248C121.907 92.1313 122.261 93.368 122.261 94.958C122.261 96.972 121.501 98.5797 119.982 99.781C118.498 100.947 116.501 101.53 113.993 101.53ZM129.256 101V66.232H130.899V101H129.256ZM122.79 78.051V76.62H137.312V78.051H122.79ZM149.418 101.53C147.015 101.53 144.86 100.982 142.952 99.887C141.079 98.7563 139.595 97.237 138.5 95.329C137.405 93.421 136.857 91.2657 136.857 88.863C136.857 86.4603 137.405 84.305 138.5 82.397C139.595 80.4537 141.079 78.9167 142.952 77.786C144.825 76.6553 146.945 76.09 149.312 76.09C151.185 76.09 152.863 76.4433 154.347 77.15C155.866 77.8213 157.121 78.793 158.11 80.065C159.135 81.337 159.841 82.8563 160.23 84.623V92.944C159.806 94.7107 159.082 96.2477 158.057 97.555C157.068 98.827 155.831 99.8163 154.347 100.523C152.898 101.194 151.255 101.53 149.418 101.53ZM149.63 99.993C152.669 99.993 155.089 98.986 156.891 96.972C158.693 94.9227 159.594 92.2197 159.594 88.863C159.594 86.6017 159.17 84.6407 158.322 82.98C157.509 81.284 156.343 79.9767 154.824 79.058C153.305 78.104 151.538 77.627 149.524 77.627C147.404 77.627 145.514 78.1217 143.853 79.111C142.228 80.065 140.938 81.39 139.984 83.086C139.03 84.7467 138.553 86.6547 138.553 88.81C138.553 90.9653 139.03 92.891 139.984 94.587C140.938 96.2477 142.245 97.5727 143.906 98.562C145.602 99.516 147.51 99.993 149.63 99.993ZM159.541 101V94.481L160.018 88.439L159.541 82.556V76.62H161.184V101H159.541ZM176.918 101.53C174.551 101.53 172.413 100.965 170.505 99.834C168.632 98.7033 167.131 97.1663 166 95.223C164.905 93.2797 164.357 91.1067 164.357 88.704C164.357 86.3367 164.905 84.199 166 82.291C167.131 80.383 168.632 78.8813 170.505 77.786C172.413 76.6553 174.551 76.09 176.918 76.09C178.685 76.09 180.328 76.4257 181.847 77.097C183.402 77.733 184.727 78.634 185.822 79.8L184.709 80.913C183.755 79.8883 182.607 79.0933 181.264 78.528C179.921 77.9273 178.473 77.627 176.918 77.627C174.869 77.627 173.014 78.1217 171.353 79.111C169.728 80.065 168.438 81.3723 167.484 83.033C166.53 84.6937 166.053 86.584 166.053 88.704C166.053 90.8593 166.53 92.785 167.484 94.481C168.438 96.177 169.728 97.5197 171.353 98.509C173.014 99.4983 174.869 99.993 176.918 99.993C178.508 99.993 179.974 99.7103 181.317 99.145C182.695 98.5443 183.879 97.714 184.868 96.654L185.981 97.767C184.85 98.9683 183.49 99.9047 181.9 100.576C180.345 101.212 178.685 101.53 176.918 101.53ZM188.478 101V64.112H190.121V101H188.478ZM206.096 101.53C203.658 101.53 201.467 100.982 199.524 99.887C197.616 98.7563 196.096 97.237 194.966 95.329C193.87 93.3857 193.323 91.195 193.323 88.757C193.323 86.3543 193.853 84.199 194.913 82.291C196.008 80.383 197.492 78.8813 199.365 77.786C201.273 76.6553 203.41 76.09 205.778 76.09C207.968 76.09 209.894 76.5847 211.555 77.574C213.251 78.528 214.576 79.8707 215.53 81.602C216.484 83.3333 216.961 85.3297 216.961 87.591C216.961 87.7323 216.943 87.962 216.908 88.28C216.908 88.5627 216.872 88.9337 216.802 89.393H194.489V87.856H215.742L215.265 88.227C215.406 86.1423 215.088 84.305 214.311 82.715C213.533 81.125 212.403 79.8883 210.919 79.005C209.47 78.0863 207.739 77.627 205.725 77.627C203.605 77.627 201.732 78.104 200.107 79.058C198.517 79.9767 197.262 81.2663 196.344 82.927C195.46 84.5523 195.019 86.4603 195.019 88.651C195.019 90.9123 195.478 92.891 196.397 94.587C197.351 96.283 198.676 97.608 200.372 98.562C202.068 99.516 204.046 99.993 206.308 99.993C208.004 99.993 209.558 99.675 210.972 99.039C212.42 98.403 213.639 97.449 214.629 96.177L215.742 97.29C214.646 98.5973 213.251 99.6397 211.555 100.417C209.894 101.159 208.074 101.53 206.096 101.53ZM230.899 101.53C228.497 101.53 226.341 100.982 224.433 99.887C222.561 98.7563 221.077 97.237 219.981 95.329C218.886 93.421 218.338 91.2657 218.338 88.863C218.338 86.4603 218.886 84.305 219.981 82.397C221.077 80.4537 222.561 78.9167 224.433 77.786C226.306 76.6553 228.426 76.09 230.793 76.09C232.666 76.09 234.344 76.4433 235.828 77.15C237.348 77.8213 238.602 78.793 239.591 80.065C240.616 81.337 241.323 82.8563 241.711 84.623V92.944C241.287 94.7107 240.563 96.2477 239.538 97.555C238.549 98.827 237.312 99.8163 235.828 100.523C234.38 101.194 232.737 101.53 230.899 101.53ZM231.111 99.993C234.15 99.993 236.57 98.986 238.372 96.972C240.174 94.9227 241.075 92.2197 241.075 88.863C241.075 86.6017 240.651 84.6407 239.803 82.98C238.991 81.284 237.825 79.9767 236.305 79.058C234.786 78.104 233.019 77.627 231.005 77.627C228.885 77.627 226.995 78.1217 225.334 79.111C223.709 80.065 222.419 81.39 221.465 83.086C220.511 84.7467 220.034 86.6547 220.034 88.81C220.034 90.9653 220.511 92.891 221.465 94.587C222.419 96.2477 223.727 97.5727 225.387 98.562C227.083 99.516 228.991 99.993 231.111 99.993ZM241.022 101V94.481L241.499 88.439L241.022 82.556V76.62H242.665V101H241.022ZM266.296 101V86.425C266.296 83.775 265.537 81.6373 264.017 80.012C262.498 78.3867 260.466 77.574 257.922 77.574C256.191 77.574 254.654 77.9627 253.311 78.74C252.004 79.482 250.962 80.5067 250.184 81.814C249.442 83.1213 249.071 84.6407 249.071 86.372L247.958 85.736C247.958 83.8987 248.4 82.2557 249.283 80.807C250.202 79.3583 251.421 78.21 252.94 77.362C254.495 76.514 256.244 76.09 258.187 76.09C260.131 76.09 261.827 76.5317 263.275 77.415C264.759 78.2983 265.908 79.5173 266.72 81.072C267.533 82.6267 267.939 84.411 267.939 86.425V101H266.296ZM247.428 101V76.62H249.071V101H247.428Z" fill="white"/>
<mask id="path-2-inside-1_49_134" fill="white">
<path d="M83.5714 67.5714C82.2079 67.5699 80.9007 67.0275 79.9366 66.0634C78.9725 65.0993 78.4301 63.7921 78.4286 62.4286C78.4286 62.3149 78.3834 62.2059 78.303 62.1255C78.2227 62.0452 78.1137 62 78 62C77.8863 62 77.7773 62.0452 77.697 62.1255C77.6166 62.2059 77.5714 62.3149 77.5714 62.4286C77.5699 63.7921 77.0275 65.0993 76.0634 66.0634C75.0993 67.0275 73.7921 67.5699 72.4286 67.5714C72.3149 67.5714 72.2059 67.6166 72.1255 67.697C72.0452 67.7773 72 67.8863 72 68C72 68.1137 72.0452 68.2227 72.1255 68.303C72.2059 68.3834 72.3149 68.4286 72.4286 68.4286C73.7921 68.4301 75.0993 68.9725 76.0634 69.9366C77.0275 70.9007 77.5699 72.2079 77.5714 73.5714C77.5714 73.6851 77.6166 73.7941 77.697 73.8745C77.7773 73.9548 77.8863 74 78 74C78.1137 74 78.2227 73.9548 78.303 73.8745C78.3834 73.7941 78.4286 73.6851 78.4286 73.5714C78.4301 72.2079 78.9725 70.9007 79.9366 69.9366C80.9007 68.9725 82.2079 68.4301 83.5714 68.4286C83.6851 68.4286 83.7941 68.3834 83.8745 68.303C83.9548 68.2227 84 68.1137 84 68C84 67.8863 83.9548 67.7773 83.8745 67.697C83.7941 67.6166 83.6851 67.5714 83.5714 67.5714ZM78 71.3573C77.6969 70.5995 77.2431 69.9112 76.666 69.334C76.0888 68.7569 75.4005 68.3031 74.6427 68C75.4005 67.6969 76.0888 67.2431 76.666 66.666C77.2431 66.0888 77.6969 65.4005 78 64.6427C78.3031 65.4005 78.7569 66.0888 79.334 66.666C79.9112 67.2431 80.5995 67.6969 81.3573 68C80.5995 68.3031 79.9112 68.7569 79.334 69.334C78.7569 69.9112 78.3031 70.5995 78 71.3573Z"/>
</mask>
<path d="M83.5714 67.5714C82.2079 67.5699 80.9007 67.0275 79.9366 66.0634C78.9725 65.0993 78.4301 63.7921 78.4286 62.4286C78.4286 62.3149 78.3834 62.2059 78.303 62.1255C78.2227 62.0452 78.1137 62 78 62C77.8863 62 77.7773 62.0452 77.697 62.1255C77.6166 62.2059 77.5714 62.3149 77.5714 62.4286C77.5699 63.7921 77.0275 65.0993 76.0634 66.0634C75.0993 67.0275 73.7921 67.5699 72.4286 67.5714C72.3149 67.5714 72.2059 67.6166 72.1255 67.697C72.0452 67.7773 72 67.8863 72 68C72 68.1137 72.0452 68.2227 72.1255 68.303C72.2059 68.3834 72.3149 68.4286 72.4286 68.4286C73.7921 68.4301 75.0993 68.9725 76.0634 69.9366C77.0275 70.9007 77.5699 72.2079 77.5714 73.5714C77.5714 73.6851 77.6166 73.7941 77.697 73.8745C77.7773 73.9548 77.8863 74 78 74C78.1137 74 78.2227 73.9548 78.303 73.8745C78.3834 73.7941 78.4286 73.6851 78.4286 73.5714C78.4301 72.2079 78.9725 70.9007 79.9366 69.9366C80.9007 68.9725 82.2079 68.4301 83.5714 68.4286C83.6851 68.4286 83.7941 68.3834 83.8745 68.303C83.9548 68.2227 84 68.1137 84 68C84 67.8863 83.9548 67.7773 83.8745 67.697C83.7941 67.6166 83.6851 67.5714 83.5714 67.5714ZM78 71.3573C77.6969 70.5995 77.2431 69.9112 76.666 69.334C76.0888 68.7569 75.4005 68.3031 74.6427 68C75.4005 67.6969 76.0888 67.2431 76.666 66.666C77.2431 66.0888 77.6969 65.4005 78 64.6427C78.3031 65.4005 78.7569 66.0888 79.334 66.666C79.9112 67.2431 80.5995 67.6969 81.3573 68C80.5995 68.3031 79.9112 68.7569 79.334 69.334C78.7569 69.9112 78.3031 70.5995 78 71.3573Z" fill="black"/>
<path d="M83.5714 67.5714L83.5646 73.5714H83.5714V67.5714ZM78.4286 62.4286L72.4286 62.4286L72.4286 62.4354L78.4286 62.4286ZM78 62L78 56L78 62ZM77.5714 62.4286L83.5714 62.4354V62.4286H77.5714ZM72.4286 67.5714L72.4286 73.5714L72.4354 73.5714L72.4286 67.5714ZM72 68L66 68L72 68ZM72.4286 68.4286L72.4354 62.4286H72.4286V68.4286ZM77.5714 73.5714L83.5714 73.5714L83.5714 73.5646L77.5714 73.5714ZM78.4286 73.5714L72.4286 73.5646V73.5714H78.4286ZM83.5714 68.4286L83.5714 62.4286L83.5646 62.4286L83.5714 68.4286ZM78 71.3573L72.429 73.5853C73.3401 75.8634 75.5464 77.3573 78 77.3573C80.4536 77.3573 82.6599 75.8634 83.571 73.5853L78 71.3573ZM74.6427 68L72.4147 62.429C70.1366 63.3401 68.6427 65.5464 68.6427 68C68.6427 70.4536 70.1366 72.6599 72.4147 73.571L74.6427 68ZM78 64.6427L83.571 62.4147C82.6599 60.1366 80.4536 58.6427 78 58.6427C75.5464 58.6427 73.3401 60.1366 72.429 62.4147L78 64.6427ZM81.3573 68L83.5853 73.571C85.8634 72.6599 87.3573 70.4536 87.3573 68C87.3573 65.5464 85.8634 63.3401 83.5853 62.429L81.3573 68ZM83.5783 61.5714C83.8037 61.5717 84.0198 61.6614 84.1792 61.8208L75.694 70.306C77.7816 72.3937 80.6122 73.5681 83.5646 73.5714L83.5783 61.5714ZM84.1792 61.8208C84.3386 61.9802 84.4283 62.1963 84.4286 62.4217L72.4286 62.4354C72.4319 65.3878 73.6063 68.2184 75.694 70.306L84.1792 61.8208ZM84.4286 62.4286C84.4286 60.7236 83.7513 59.0885 82.5457 57.8829L74.0604 66.3682C73.0156 65.3233 72.4286 63.9062 72.4286 62.4286L84.4286 62.4286ZM82.5457 57.8829C81.3401 56.6773 79.705 56 78 56L78 68C76.5224 68 75.1053 67.413 74.0604 66.3682L82.5457 57.8829ZM78 56C76.295 56 74.6599 56.6773 73.4543 57.8829L81.9396 66.3682C80.8947 67.413 79.4776 68 78 68L78 56ZM73.4543 57.8829C72.2487 59.0885 71.5714 60.7236 71.5714 62.4286H83.5714C83.5714 63.9062 82.9844 65.3233 81.9396 66.3682L73.4543 57.8829ZM71.5714 62.4217C71.5717 62.1963 71.6614 61.9802 71.8208 61.8208L80.306 70.306C82.3937 68.2184 83.5681 65.3878 83.5714 62.4354L71.5714 62.4217ZM71.8208 61.8208C71.9802 61.6614 72.1963 61.5717 72.4217 61.5714L72.4354 73.5714C75.3878 73.5681 78.2184 72.3937 80.306 70.306L71.8208 61.8208ZM72.4286 61.5714C70.7236 61.5714 69.0885 62.2487 67.8829 63.4543L76.3682 71.9396C75.3233 72.9844 73.9062 73.5714 72.4286 73.5714V61.5714ZM67.8829 63.4543C66.6773 64.6599 66 66.295 66 68L78 68C78 69.4776 77.413 70.8947 76.3682 71.9396L67.8829 63.4543ZM66 68C66 69.705 66.6773 71.3401 67.8829 72.5457L76.3682 64.0604C77.413 65.1053 78 66.5224 78 68L66 68ZM67.8829 72.5457C69.0885 73.7513 70.7236 74.4286 72.4286 74.4286V62.4286C73.9062 62.4286 75.3233 63.0156 76.3682 64.0604L67.8829 72.5457ZM72.4217 74.4286C72.1963 74.4283 71.9802 74.3386 71.8208 74.1792L80.306 65.694C78.2184 63.6063 75.3878 62.4319 72.4354 62.4286L72.4217 74.4286ZM71.8208 74.1792C71.6614 74.0198 71.5717 73.8037 71.5714 73.5783L83.5714 73.5646C83.5681 70.6122 82.3937 67.7816 80.306 65.694L71.8208 74.1792ZM71.5714 73.5714C71.5714 75.2764 72.2487 76.9115 73.4543 78.1171L81.9396 69.6318C82.9845 70.6767 83.5714 72.0938 83.5714 73.5714L71.5714 73.5714ZM73.4543 78.1171C74.6599 79.3227 76.295 80 78 80V68C79.4777 68 80.8948 68.587 81.9396 69.6318L73.4543 78.1171ZM78 80C79.705 80 81.3401 79.3227 82.5457 78.1171L74.0604 69.6318C75.1052 68.587 76.5223 68 78 68V80ZM82.5457 78.1171C83.7513 76.9115 84.4286 75.2764 84.4286 73.5714H72.4286C72.4286 72.0938 73.0155 70.6767 74.0604 69.6318L82.5457 78.1171ZM84.4286 73.5783C84.4283 73.8037 84.3386 74.0198 84.1792 74.1792L75.694 65.694C73.6063 67.7816 72.4319 70.6122 72.4286 73.5646L84.4286 73.5783ZM84.1792 74.1792C84.0198 74.3386 83.8037 74.4283 83.5783 74.4286L83.5646 62.4286C80.6122 62.4319 77.7816 63.6063 75.694 65.694L84.1792 74.1792ZM83.5714 74.4286C85.2764 74.4286 86.9115 73.7513 88.1171 72.5457L79.6318 64.0604C80.6767 63.0155 82.0938 62.4286 83.5714 62.4286L83.5714 74.4286ZM88.1171 72.5457C89.3227 71.3401 90 69.705 90 68H78C78 66.5223 78.587 65.1052 79.6318 64.0604L88.1171 72.5457ZM90 68C90 66.295 89.3227 64.6599 88.1171 63.4543L79.6318 71.9396C78.587 70.8948 78 69.4777 78 68H90ZM88.1171 63.4543C86.9115 62.2487 85.2764 61.5714 83.5714 61.5714V73.5714C82.0938 73.5714 80.6767 72.9845 79.6318 71.9396L88.1171 63.4543ZM83.571 69.1293C82.9661 67.6169 82.0604 66.2432 80.9086 65.0914L72.4233 73.5767C72.4258 73.5791 72.4277 73.5821 72.429 73.5853L83.571 69.1293ZM80.9086 65.0914C79.7568 63.9396 78.3831 63.0339 76.8707 62.429L72.4147 73.571C72.4179 73.5723 72.4209 73.5742 72.4233 73.5767L80.9086 65.0914ZM76.8707 73.571C78.3831 72.9661 79.7568 72.0604 80.9086 70.9086L72.4233 62.4233C72.4209 62.4258 72.4179 62.4277 72.4147 62.429L76.8707 73.571ZM80.9086 70.9086C82.0604 69.7568 82.9661 68.3831 83.571 66.8707L72.429 62.4147C72.4277 62.4179 72.4258 62.4209 72.4233 62.4233L80.9086 70.9086ZM72.429 66.8707C73.0339 68.3831 73.9396 69.7568 75.0914 70.9086L83.5767 62.4233C83.5742 62.4209 83.5723 62.4179 83.571 62.4147L72.429 66.8707ZM75.0914 70.9086C76.2432 72.0604 77.6169 72.9661 79.1293 73.571L83.5853 62.429C83.5821 62.4277 83.5791 62.4258 83.5767 62.4233L75.0914 70.9086ZM79.1293 62.429C77.6169 63.0339 76.2432 63.9396 75.0914 65.0914L83.5767 73.5767C83.5791 73.5742 83.5821 73.5723 83.5853 73.571L79.1293 62.429ZM75.0914 65.0914C73.9396 66.2432 73.0339 67.6169 72.429 69.1293L83.571 73.5853C83.5723 73.5821 83.5742 73.5791 83.5767 73.5767L75.0914 65.0914Z" fill="#54AFBC" mask="url(#path-2-inside-1_49_134)"/>
<rect x="77" y="76" width="2" height="25" fill="white"/>
</svg>
