<svg width="204" height="55" viewBox="0 0 204 55" fill="none" xmlns="http://www.w3.org/2000/svg">
<g clip-path="url(#clip0_55_337)">
<path d="M33.108 46V31.425C33.108 28.775 32.3483 26.6373 30.829 25.012C29.3097 23.3867 27.278 22.574 24.734 22.574C23.0027 22.574 21.4657 22.9627 20.123 23.74C18.8157 24.482 17.7733 25.5067 16.996 26.814C16.254 28.1213 15.883 29.6407 15.883 31.372L14.77 30.736C14.77 28.8987 15.2117 27.2557 16.095 25.807C17.0137 24.3583 18.2327 23.21 19.752 22.362C21.3067 21.514 23.0557 21.09 24.999 21.09C26.9423 21.09 28.6383 21.5317 30.087 22.415C31.571 23.2983 32.7193 24.5173 33.532 26.072C34.3447 27.6267 34.751 29.411 34.751 31.425V46H33.108ZM14.24 46V21.62H15.883V46H14.24ZM45.9928 46.53C44.6855 46.53 43.4488 46.3533 42.2828 46C41.1521 45.6113 40.1275 45.099 39.2088 44.463C38.2901 43.7917 37.4775 43.032 36.7708 42.184L37.8838 41.018C38.9438 42.396 40.1628 43.4207 41.5408 44.092C42.9188 44.728 44.4205 45.046 46.0458 45.046C48.0598 45.046 49.6675 44.622 50.8688 43.774C52.0701 42.8907 52.6708 41.6893 52.6708 40.17C52.6708 38.8273 52.3175 37.7673 51.6108 36.99C50.9395 36.2127 50.0561 35.612 48.9608 35.188C47.8655 34.764 46.6995 34.3753 45.4628 34.022C44.2615 33.6687 43.1131 33.2623 42.0178 32.803C40.9225 32.3083 40.0215 31.637 39.3148 30.789C38.6435 29.9057 38.3078 28.722 38.3078 27.238C38.3078 26.0367 38.6258 24.9767 39.2618 24.058C39.8978 23.1393 40.7988 22.415 41.9648 21.885C43.1308 21.355 44.5088 21.09 46.0988 21.09C47.8301 21.09 49.4201 21.408 50.8688 22.044C52.3175 22.6447 53.4481 23.528 54.2608 24.694L53.1478 25.807C52.4411 24.8177 51.4518 24.0403 50.1798 23.475C48.9078 22.8743 47.4945 22.574 45.9398 22.574C43.9611 22.574 42.4595 23.0157 41.4348 23.899C40.4101 24.7823 39.8978 25.8777 39.8978 27.185C39.8978 28.4217 40.2335 29.3933 40.9048 30.1C41.6115 30.8067 42.5125 31.3543 43.6078 31.743C44.7031 32.1317 45.8515 32.5027 47.0528 32.856C48.2895 33.174 49.4555 33.598 50.5508 34.128C51.6461 34.6227 52.5295 35.3293 53.2008 36.248C53.9075 37.1313 54.2608 38.368 54.2608 39.958C54.2608 41.972 53.5011 43.5797 51.9818 44.781C50.4978 45.947 48.5015 46.53 45.9928 46.53ZM61.2564 46V11.232H62.8994V46H61.2564ZM54.7904 23.051V21.62H69.3124V23.051H54.7904ZM81.4179 46.53C79.0152 46.53 76.8599 45.9823 74.9519 44.887C73.0792 43.7563 71.5952 42.237 70.4999 40.329C69.4046 38.421 68.8569 36.2657 68.8569 33.863C68.8569 31.4603 69.4046 29.305 70.4999 27.397C71.5952 25.4537 73.0792 23.9167 74.9519 22.786C76.8246 21.6553 78.9446 21.09 81.3119 21.09C83.1846 21.09 84.8629 21.4433 86.3469 22.15C87.8662 22.8213 89.1206 23.793 90.1099 25.065C91.1346 26.337 91.8412 27.8563 92.2299 29.623V37.944C91.8059 39.7107 91.0816 41.2477 90.0569 42.555C89.0676 43.827 87.8309 44.8163 86.3469 45.523C84.8982 46.1943 83.2552 46.53 81.4179 46.53ZM81.6299 44.993C84.6686 44.993 87.0889 43.986 88.8909 41.972C90.6929 39.9227 91.5939 37.2197 91.5939 33.863C91.5939 31.6017 91.1699 29.6407 90.3219 27.98C89.5092 26.284 88.3432 24.9767 86.8239 24.058C85.3046 23.104 83.5379 22.627 81.5239 22.627C79.4039 22.627 77.5136 23.1217 75.8529 24.111C74.2276 25.065 72.9379 26.39 71.9839 28.086C71.0299 29.7467 70.5529 31.6547 70.5529 33.81C70.5529 35.9653 71.0299 37.891 71.9839 39.587C72.9379 41.2477 74.2452 42.5727 75.9059 43.562C77.6019 44.516 79.5099 44.993 81.6299 44.993ZM91.5409 46V39.481L92.0179 33.439L91.5409 27.556V21.62H93.1839V46H91.5409ZM108.918 46.53C106.551 46.53 104.413 45.9647 102.505 44.834C100.632 43.7033 99.1305 42.1663 97.9999 40.223C96.9045 38.2797 96.3569 36.1067 96.3569 33.704C96.3569 31.3367 96.9045 29.199 97.9999 27.291C99.1305 25.383 100.632 23.8813 102.505 22.786C104.413 21.6553 106.551 21.09 108.918 21.09C110.685 21.09 112.328 21.4257 113.847 22.097C115.402 22.733 116.727 23.634 117.822 24.8L116.709 25.913C115.755 24.8883 114.607 24.0933 113.264 23.528C111.921 22.9273 110.473 22.627 108.918 22.627C106.869 22.627 105.014 23.1217 103.353 24.111C101.728 25.065 100.438 26.3723 99.4839 28.033C98.5299 29.6937 98.0529 31.584 98.0529 33.704C98.0529 35.8593 98.5299 37.785 99.4839 39.481C100.438 41.177 101.728 42.5197 103.353 43.509C105.014 44.4983 106.869 44.993 108.918 44.993C110.508 44.993 111.974 44.7103 113.317 44.145C114.695 43.5443 115.879 42.714 116.868 41.654L117.981 42.767C116.85 43.9683 115.49 44.9047 113.9 45.576C112.345 46.212 110.685 46.53 108.918 46.53ZM120.478 46V9.112H122.121V46H120.478ZM138.096 46.53C135.658 46.53 133.467 45.9823 131.524 44.887C129.616 43.7563 128.096 42.237 126.966 40.329C125.87 38.3857 125.323 36.195 125.323 33.757C125.323 31.3543 125.853 29.199 126.913 27.291C128.008 25.383 129.492 23.8813 131.365 22.786C133.273 21.6553 135.41 21.09 137.778 21.09C139.968 21.09 141.894 21.5847 143.555 22.574C145.251 23.528 146.576 24.8707 147.53 26.602C148.484 28.3333 148.961 30.3297 148.961 32.591C148.961 32.7323 148.943 32.962 148.908 33.28C148.908 33.5627 148.872 33.9337 148.802 34.393H126.489V32.856H147.742L147.265 33.227C147.406 31.1423 147.088 29.305 146.311 27.715C145.533 26.125 144.403 24.8883 142.919 24.005C141.47 23.0863 139.739 22.627 137.725 22.627C135.605 22.627 133.732 23.104 132.107 24.058C130.517 24.9767 129.262 26.2663 128.344 27.927C127.46 29.5523 127.019 31.4603 127.019 33.651C127.019 35.9123 127.478 37.891 128.397 39.587C129.351 41.283 130.676 42.608 132.372 43.562C134.068 44.516 136.046 44.993 138.308 44.993C140.004 44.993 141.558 44.675 142.972 44.039C144.42 43.403 145.639 42.449 146.629 41.177L147.742 42.29C146.646 43.5973 145.251 44.6397 143.555 45.417C141.894 46.159 140.074 46.53 138.096 46.53ZM162.899 46.53C160.497 46.53 158.341 45.9823 156.433 44.887C154.561 43.7563 153.077 42.237 151.981 40.329C150.886 38.421 150.338 36.2657 150.338 33.863C150.338 31.4603 150.886 29.305 151.981 27.397C153.077 25.4537 154.561 23.9167 156.433 22.786C158.306 21.6553 160.426 21.09 162.793 21.09C164.666 21.09 166.344 21.4433 167.828 22.15C169.348 22.8213 170.602 23.793 171.591 25.065C172.616 26.337 173.323 27.8563 173.711 29.623V37.944C173.287 39.7107 172.563 41.2477 171.538 42.555C170.549 43.827 169.312 44.8163 167.828 45.523C166.38 46.1943 164.737 46.53 162.899 46.53ZM163.111 44.993C166.15 44.993 168.57 43.986 170.372 41.972C172.174 39.9227 173.075 37.2197 173.075 33.863C173.075 31.6017 172.651 29.6407 171.803 27.98C170.991 26.284 169.825 24.9767 168.305 24.058C166.786 23.104 165.019 22.627 163.005 22.627C160.885 22.627 158.995 23.1217 157.334 24.111C155.709 25.065 154.419 26.39 153.465 28.086C152.511 29.7467 152.034 31.6547 152.034 33.81C152.034 35.9653 152.511 37.891 153.465 39.587C154.419 41.2477 155.727 42.5727 157.387 43.562C159.083 44.516 160.991 44.993 163.111 44.993ZM173.022 46V39.481L173.499 33.439L173.022 27.556V21.62H174.665V46H173.022ZM198.296 46V31.425C198.296 28.775 197.537 26.6373 196.017 25.012C194.498 23.3867 192.466 22.574 189.922 22.574C188.191 22.574 186.654 22.9627 185.311 23.74C184.004 24.482 182.962 25.5067 182.184 26.814C181.442 28.1213 181.071 29.6407 181.071 31.372L179.958 30.736C179.958 28.8987 180.4 27.2557 181.283 25.807C182.202 24.3583 183.421 23.21 184.94 22.362C186.495 21.514 188.244 21.09 190.187 21.09C192.131 21.09 193.827 21.5317 195.275 22.415C196.759 23.2983 197.908 24.5173 198.72 26.072C199.533 27.6267 199.939 29.411 199.939 31.425V46H198.296ZM179.428 46V21.62H181.071V46H179.428Z" fill="white"/>
<mask id="path-2-inside-1_55_337" fill="white">
<path d="M20.2857 9.78962C18.0132 9.78703 15.8346 8.88314 14.2277 7.27625C12.6208 5.66935 11.7169 3.49068 11.7143 1.21819C11.7143 1.02875 11.639 0.84707 11.5051 0.713116C11.3711 0.579161 11.1894 0.503906 11 0.503906C10.8106 0.503906 10.6289 0.579161 10.4949 0.713116C10.361 0.84707 10.2857 1.02875 10.2857 1.21819C10.2831 3.49068 9.37923 5.66935 7.77234 7.27625C6.16545 8.88314 3.98678 9.78703 1.71429 9.78962C1.52485 9.78962 1.34316 9.86487 1.20921 9.99883C1.07525 10.1328 1 10.3145 1 10.5039C1 10.6933 1.07525 10.875 1.20921 11.009C1.34316 11.1429 1.52485 11.2182 1.71429 11.2182C3.98678 11.2208 6.16545 12.1247 7.77234 13.7316C9.37923 15.3385 10.2831 17.5171 10.2857 19.7896C10.2857 19.9791 10.361 20.1607 10.4949 20.2947C10.6289 20.4287 10.8106 20.5039 11 20.5039C11.1894 20.5039 11.3711 20.4287 11.5051 20.2947C11.639 20.1607 11.7143 19.9791 11.7143 19.7896C11.7169 17.5171 12.6208 15.3385 14.2277 13.7316C15.8346 12.1247 18.0132 11.2208 20.2857 11.2182C20.4752 11.2182 20.6568 11.1429 20.7908 11.009C20.9247 10.875 21 10.6933 21 10.5039C21 10.3145 20.9247 10.1328 20.7908 9.99883C20.6568 9.86487 20.4752 9.78962 20.2857 9.78962ZM11 16.0994C10.4949 14.8364 9.73845 13.6892 8.7766 12.7273C7.81474 11.7655 6.66751 11.009 5.4045 10.5039C6.66751 9.99879 7.81474 9.24236 8.7766 8.2805C9.73845 7.31865 10.4949 6.17141 11 4.90841C11.5051 6.17141 12.2615 7.31865 13.2234 8.2805C14.1853 9.24236 15.3325 9.99879 16.5955 10.5039C15.3325 11.009 14.1853 11.7655 13.2234 12.7273C12.2615 13.6892 11.5051 14.8364 11 16.0994Z"/>
</mask>
<path d="M20.2857 9.78962C18.0132 9.78703 15.8346 8.88314 14.2277 7.27625C12.6208 5.66935 11.7169 3.49068 11.7143 1.21819C11.7143 1.02875 11.639 0.84707 11.5051 0.713116C11.3711 0.579161 11.1894 0.503906 11 0.503906C10.8106 0.503906 10.6289 0.579161 10.4949 0.713116C10.361 0.84707 10.2857 1.02875 10.2857 1.21819C10.2831 3.49068 9.37923 5.66935 7.77234 7.27625C6.16545 8.88314 3.98678 9.78703 1.71429 9.78962C1.52485 9.78962 1.34316 9.86487 1.20921 9.99883C1.07525 10.1328 1 10.3145 1 10.5039C1 10.6933 1.07525 10.875 1.20921 11.009C1.34316 11.1429 1.52485 11.2182 1.71429 11.2182C3.98678 11.2208 6.16545 12.1247 7.77234 13.7316C9.37923 15.3385 10.2831 17.5171 10.2857 19.7896C10.2857 19.9791 10.361 20.1607 10.4949 20.2947C10.6289 20.4287 10.8106 20.5039 11 20.5039C11.1894 20.5039 11.3711 20.4287 11.5051 20.2947C11.639 20.1607 11.7143 19.9791 11.7143 19.7896C11.7169 17.5171 12.6208 15.3385 14.2277 13.7316C15.8346 12.1247 18.0132 11.2208 20.2857 11.2182C20.4752 11.2182 20.6568 11.1429 20.7908 11.009C20.9247 10.875 21 10.6933 21 10.5039C21 10.3145 20.9247 10.1328 20.7908 9.99883C20.6568 9.86487 20.4752 9.78962 20.2857 9.78962ZM11 16.0994C10.4949 14.8364 9.73845 13.6892 8.7766 12.7273C7.81474 11.7655 6.66751 11.009 5.4045 10.5039C6.66751 9.99879 7.81474 9.24236 8.7766 8.2805C9.73845 7.31865 10.4949 6.17141 11 4.90841C11.5051 6.17141 12.2615 7.31865 13.2234 8.2805C14.1853 9.24236 15.3325 9.99879 16.5955 10.5039C15.3325 11.009 14.1853 11.7655 13.2234 12.7273C12.2615 13.6892 11.5051 14.8364 11 16.0994Z" fill="black"/>
<path d="M20.2857 9.78962L20.2789 15.7896H20.2857V9.78962ZM11.7143 1.21819L5.71428 1.21819L5.71429 1.22503L11.7143 1.21819ZM11 0.503906L11 -5.49609L11 0.503906ZM10.2857 1.21819L16.2857 1.22503V1.21819H10.2857ZM1.71429 9.78962L1.71429 15.7896L1.72112 15.7896L1.71429 9.78962ZM1 10.5039L-5 10.5039L1 10.5039ZM1.71429 11.2182L1.72112 5.21819H1.71429V11.2182ZM10.2857 19.7896L16.2857 19.7896L16.2857 19.7828L10.2857 19.7896ZM11.7143 19.7896L5.71429 19.7828V19.7896H11.7143ZM20.2857 11.2182L20.2857 5.21819L20.2789 5.2182L20.2857 11.2182ZM11 16.0994L5.42901 18.3274C6.3401 20.6055 8.54644 22.0994 11 22.0994C13.4536 22.0994 15.6599 20.6055 16.571 18.3274L11 16.0994ZM5.4045 10.5039L3.17648 4.93292C0.89836 5.84401 -0.5955 8.05035 -0.5955 10.5039C-0.5955 12.9575 0.89836 15.1638 3.17648 16.0749L5.4045 10.5039ZM11 4.90841L16.571 2.68039C15.6599 0.402266 13.4536 -1.09159 11 -1.09159C8.54644 -1.09159 6.3401 0.402266 5.42901 2.68039L11 4.90841ZM16.5955 10.5039L18.8235 16.0749C21.1016 15.1638 22.5955 12.9575 22.5955 10.5039C22.5955 8.05035 21.1016 5.84401 18.8235 4.93292L16.5955 10.5039ZM20.2926 3.78962C19.609 3.78885 18.9537 3.51696 18.4703 3.03361L9.98502 11.5189C12.7155 14.2493 16.4175 15.7852 20.2789 15.7896L20.2926 3.78962ZM18.4703 3.03361C17.9869 2.55025 17.7151 1.89492 17.7143 1.21135L5.71429 1.22503C5.71869 5.08645 7.25458 8.78845 9.98502 11.5189L18.4703 3.03361ZM17.7143 1.21819C17.7143 -0.562526 17.0069 -2.27034 15.7477 -3.52953L7.26244 4.95576C6.27116 3.96448 5.71429 2.62003 5.71429 1.21819L17.7143 1.21819ZM15.7477 -3.52953C14.4885 -4.78871 12.7807 -5.49609 11 -5.49609L11 6.50391C9.59815 6.50391 8.25371 5.94703 7.26244 4.95576L15.7477 -3.52953ZM11 -5.49609C9.21927 -5.49609 7.51146 -4.78871 6.25228 -3.52953L14.7376 4.95576C13.7463 5.94703 12.4018 6.50391 11 6.50391L11 -5.49609ZM6.25228 -3.52953C4.99309 -2.27034 4.28571 -0.562526 4.28571 1.21819H16.2857C16.2857 2.62003 15.7288 3.96448 14.7376 4.95576L6.25228 -3.52953ZM4.28572 1.21135C4.28494 1.89491 4.01305 2.55025 3.5297 3.03361L12.015 11.5189C14.7454 8.78845 16.2813 5.08645 16.2857 1.22503L4.28572 1.21135ZM3.5297 3.03361C3.04635 3.51696 2.39101 3.78885 1.70745 3.78962L1.72112 15.7896C5.58254 15.7852 9.28455 14.2493 12.015 11.5189L3.5297 3.03361ZM1.71429 3.78962C-0.0664327 3.78962 -1.77424 4.497 -3.03343 5.75619L5.45185 14.2415C4.46057 15.2327 3.11612 15.7896 1.71429 15.7896V3.78962ZM-3.03343 5.75619C-4.29261 7.01537 -5 8.72318 -5 10.5039L7 10.5039C7 11.9058 6.44312 13.2502 5.45185 14.2415L-3.03343 5.75619ZM-5 10.5039C-5 12.2846 -4.29261 13.9924 -3.03343 15.2516L5.45185 6.76634C6.44312 7.75761 7 9.10206 7 10.5039L-5 10.5039ZM-3.03343 15.2516C-1.77424 16.5108 -0.0664327 17.2182 1.71429 17.2182V5.21819C3.11612 5.21819 4.46057 5.77506 5.45185 6.76634L-3.03343 15.2516ZM1.70745 17.2182C2.39101 17.219 3.04635 17.4909 3.5297 17.9742L12.015 9.48892C9.28454 6.75849 5.58254 5.2226 1.72112 5.2182L1.70745 17.2182ZM3.5297 17.9742C4.01305 18.4576 4.28494 19.1129 4.28572 19.7965L16.2857 19.7828C16.2813 15.9214 14.7454 12.2194 12.015 9.48892L3.5297 17.9742ZM4.28571 19.7896C4.28571 21.5703 4.99309 23.2781 6.25228 24.5373L14.7376 16.0521C15.7288 17.0433 16.2857 18.3878 16.2857 19.7896L4.28571 19.7896ZM6.25228 24.5373C7.51146 25.7965 9.21927 26.5039 11 26.5039V14.5039C12.4018 14.5039 13.7463 15.0608 14.7376 16.0521L6.25228 24.5373ZM11 26.5039C12.7807 26.5039 14.4885 25.7965 15.7477 24.5373L7.26244 16.0521C8.25371 15.0608 9.59815 14.5039 11 14.5039V26.5039ZM15.7477 24.5373C17.0069 23.2781 17.7143 21.5703 17.7143 19.7896H5.71429C5.71429 18.3878 6.27115 17.0433 7.26244 16.0521L15.7477 24.5373ZM17.7143 19.7965C17.7151 19.1129 17.9869 18.4576 18.4703 17.9742L9.98502 9.48892C7.25458 12.2194 5.71869 15.9214 5.71429 19.7828L17.7143 19.7965ZM18.4703 17.9742C18.9537 17.4909 19.609 17.219 20.2926 17.2182L20.2789 5.2182C16.4175 5.2226 12.7155 6.75849 9.98502 9.48892L18.4703 17.9742ZM20.2857 17.2182C22.0664 17.2182 23.7742 16.5108 25.0334 15.2516L16.5481 6.76634C17.5394 5.77506 18.8839 5.21819 20.2857 5.21819L20.2857 17.2182ZM25.0334 15.2516C26.2926 13.9924 27 12.2846 27 10.5039H15C15 9.10206 15.5569 7.75761 16.5481 6.76634L25.0334 15.2516ZM27 10.5039C27 8.72318 26.2926 7.01537 25.0334 5.75619L16.5481 14.2415C15.5569 13.2502 15 11.9058 15 10.5039H27ZM25.0334 5.75619C23.7742 4.49699 22.0664 3.78962 20.2857 3.78962V15.7896C18.8839 15.7896 17.5394 15.2328 16.5481 14.2415L25.0334 5.75619ZM16.571 13.8714C15.7641 11.8538 14.5557 10.0212 13.0192 8.48467L4.53395 16.97C4.92116 17.3572 5.22567 17.819 5.42901 18.3274L16.571 13.8714ZM13.0192 8.48467C11.4827 6.94816 9.6501 5.73981 7.63252 4.93292L3.17648 16.0749C3.68492 16.2782 4.14675 16.5827 4.53395 16.97L13.0192 8.48467ZM7.63252 16.0749C9.6501 15.268 11.4827 14.0596 13.0192 12.5231L4.53395 4.03786C4.14675 4.42507 3.68492 4.72958 3.17648 4.93292L7.63252 16.0749ZM13.0192 12.5231C14.5557 10.9866 15.7641 9.154 16.571 7.13642L5.42901 2.68039C5.22567 3.18883 4.92116 3.65066 4.53395 4.03786L13.0192 12.5231ZM5.42901 7.13642C6.2359 9.154 7.44425 10.9866 8.98076 12.5231L17.466 4.03786C17.0788 3.65066 16.7743 3.18883 16.571 2.68039L5.42901 7.13642ZM8.98076 12.5231C10.5173 14.0596 12.3499 15.268 14.3675 16.0749L18.8235 4.93292C18.3151 4.72958 17.8532 4.42507 17.466 4.03786L8.98076 12.5231ZM14.3675 4.93292C12.3499 5.73981 10.5173 6.94816 8.98076 8.48467L17.466 16.97C17.8532 16.5827 18.3151 16.2782 18.8235 16.0749L14.3675 4.93292ZM8.98076 8.48467C7.44425 10.0212 6.2359 11.8538 5.42901 13.8714L16.571 18.3274C16.7743 17.819 17.0788 17.3572 17.466 16.97L8.98076 8.48467Z" fill="#54AFBC" mask="url(#path-2-inside-1_55_337)"/>
<rect x="10" y="21" width="2" height="25" fill="white"/>
</g>
<defs>
<clipPath id="clip0_55_337">
<rect width="204" height="55" fill="white"/>
</clipPath>
</defs>
</svg>
